<mxfile host="app.diagrams.net" modified="2024-01-01T17:39:02.858Z" agent="Mozilla/5.0 (Windows NT 10.0; Win64; x64; rv:121.0) Gecko/20100101 Firefox/121.0" etag="oCJAYx9zdR2v-X2safPc" version="22.1.16" type="device">
  <diagram name="Page-1" id="jr_epOJPyc_aueluBdOg">
    <mxGraphModel dx="1120" dy="814" grid="0" gridSize="10" guides="1" tooltips="1" connect="1" arrows="1" fold="1" page="0" pageScale="1" pageWidth="850" pageHeight="1100" math="0" shadow="0">
      <root>
        <mxCell id="0" />
        <mxCell id="1" parent="0" />
        <mxCell id="MWn83Oy3D5ra3sKZTmh8-26" value="star" style="strokeWidth=2;html=1;shape=mxgraph.flowchart.terminator;whiteSpace=wrap;" vertex="1" parent="1">
          <mxGeometry x="250" y="-145" width="100" height="60" as="geometry" />
        </mxCell>
        <mxCell id="MWn83Oy3D5ra3sKZTmh8-32" value="ya" style="edgeStyle=orthogonalEdgeStyle;rounded=0;orthogonalLoop=1;jettySize=auto;html=1;exitX=1;exitY=0.5;exitDx=0;exitDy=0;exitPerimeter=0;" edge="1" parent="1">
          <mxGeometry relative="1" as="geometry">
            <mxPoint x="601" y="98" as="targetPoint" />
            <mxPoint x="356.5" y="29" as="sourcePoint" />
          </mxGeometry>
        </mxCell>
        <mxCell id="MWn83Oy3D5ra3sKZTmh8-27" value="&lt;div&gt;total belanja&lt;/div&gt;&lt;div&gt;di atas 100.000&lt;br&gt;&lt;/div&gt;" style="strokeWidth=2;html=1;shape=mxgraph.flowchart.decision;whiteSpace=wrap;" vertex="1" parent="1">
          <mxGeometry x="227.5" y="-21" width="145" height="100" as="geometry" />
        </mxCell>
        <mxCell id="MWn83Oy3D5ra3sKZTmh8-35" style="edgeStyle=orthogonalEdgeStyle;rounded=0;orthogonalLoop=1;jettySize=auto;html=1;exitX=0.5;exitY=1;exitDx=0;exitDy=0;entryX=1;entryY=0.5;entryDx=0;entryDy=0;" edge="1" parent="1" source="MWn83Oy3D5ra3sKZTmh8-28" target="MWn83Oy3D5ra3sKZTmh8-29">
          <mxGeometry relative="1" as="geometry">
            <mxPoint x="433" y="323" as="targetPoint" />
            <Array as="points">
              <mxPoint x="600" y="241" />
              <mxPoint x="395" y="241" />
            </Array>
          </mxGeometry>
        </mxCell>
        <mxCell id="MWn83Oy3D5ra3sKZTmh8-28" value="selamat, anda dapat hadiah" style="shape=parallelogram;html=1;strokeWidth=2;perimeter=parallelogramPerimeter;whiteSpace=wrap;rounded=1;arcSize=12;size=0.23;" vertex="1" parent="1">
          <mxGeometry x="471" y="101" width="258" height="60" as="geometry" />
        </mxCell>
        <mxCell id="MWn83Oy3D5ra3sKZTmh8-38" style="edgeStyle=orthogonalEdgeStyle;rounded=0;orthogonalLoop=1;jettySize=auto;html=1;exitX=0.5;exitY=1;exitDx=0;exitDy=0;" edge="1" parent="1">
          <mxGeometry relative="1" as="geometry">
            <mxPoint x="300" y="324" as="targetPoint" />
            <mxPoint x="300.25" y="273" as="sourcePoint" />
          </mxGeometry>
        </mxCell>
        <mxCell id="MWn83Oy3D5ra3sKZTmh8-29" value="terimakasih sudah berbelanja" style="shape=parallelogram;html=1;strokeWidth=2;perimeter=parallelogramPerimeter;whiteSpace=wrap;rounded=1;arcSize=12;size=0.23;" vertex="1" parent="1">
          <mxGeometry x="168" y="213" width="248.5" height="60" as="geometry" />
        </mxCell>
        <mxCell id="MWn83Oy3D5ra3sKZTmh8-30" value="end" style="strokeWidth=2;html=1;shape=mxgraph.flowchart.terminator;whiteSpace=wrap;" vertex="1" parent="1">
          <mxGeometry x="251.25" y="327" width="100" height="60" as="geometry" />
        </mxCell>
        <mxCell id="MWn83Oy3D5ra3sKZTmh8-31" style="edgeStyle=orthogonalEdgeStyle;rounded=0;orthogonalLoop=1;jettySize=auto;html=1;exitX=0.5;exitY=1;exitDx=0;exitDy=0;exitPerimeter=0;entryX=0.5;entryY=0;entryDx=0;entryDy=0;entryPerimeter=0;" edge="1" parent="1" source="MWn83Oy3D5ra3sKZTmh8-26" target="MWn83Oy3D5ra3sKZTmh8-27">
          <mxGeometry relative="1" as="geometry" />
        </mxCell>
        <mxCell id="MWn83Oy3D5ra3sKZTmh8-36" value="tidak" style="edgeStyle=orthogonalEdgeStyle;rounded=0;orthogonalLoop=1;jettySize=auto;html=1;exitX=0.5;exitY=1;exitDx=0;exitDy=0;exitPerimeter=0;entryX=0.535;entryY=0.017;entryDx=0;entryDy=0;entryPerimeter=0;" edge="1" parent="1" source="MWn83Oy3D5ra3sKZTmh8-27" target="MWn83Oy3D5ra3sKZTmh8-29">
          <mxGeometry relative="1" as="geometry" />
        </mxCell>
      </root>
    </mxGraphModel>
  </diagram>
</mxfile>
